<svg width="20" height="20" viewBox="0 0 20 20" fill="none" xmlns="http://www.w3.org/2000/svg">
<path fill-rule="evenodd" clip-rule="evenodd" d="M9.16668 4.08331C6.35923 4.08331 4.08334 6.3592 4.08334 9.16665C4.08334 11.9741 6.35923 14.25 9.16668 14.25C11.9741 14.25 14.25 11.9741 14.25 9.16665C14.25 6.3592 11.9741 4.08331 9.16668 4.08331ZM2.58334 9.16665C2.58334 5.53077 5.5308 2.58331 9.16668 2.58331C12.8026 2.58331 15.75 5.53077 15.75 9.16665C15.75 10.7144 15.2159 12.1373 14.322 13.2613L17.197 16.1363C17.4899 16.4292 17.4899 16.9041 17.197 17.197C16.9041 17.4899 16.4292 17.4899 16.1363 17.197L13.2613 14.322C12.1374 15.2159 10.7144 15.75 9.16668 15.75C5.5308 15.75 2.58334 12.8025 2.58334 9.16665Z"/>
</svg>
